<svg width="1920" height="1077" viewBox="0 0 1920 1077" fill="none" xmlns="http://www.w3.org/2000/svg">
<g clip-path="url(#clip0_3_272)">
<path d="M1920 0H0V1077H1920V0Z" fill="#177156"/>
<path d="M0 631.84L275.2 773.645L548.267 771.85L823.467 775.44L1096.53 696.46L1371.73 775.44L1644.8 691.075L1920 676.715V1078.79H1644.8H1371.73H1096.53H823.467H548.267H275.2H0V631.84Z" fill="#1515A3"/>
<path d="M0 789.8L275.2 795.185L548.267 847.24L823.467 834.675L1096.53 841.855L1371.73 816.725L1644.8 761.08L1920 843.65V1078.79H1644.8H1371.73H1096.53H823.467H548.267H275.2H0V789.8Z" fill="#2A27B6"/>
<path d="M0 908.27L275.2 915.45L548.267 841.855L823.467 863.395L1096.53 886.73L1371.73 831.085L1644.8 836.47L1920 874.165V1078.8H1644.8H1371.73H1096.53H823.467H548.267H275.2H0V908.27Z" fill="#3B37CA"/>
<path d="M0 874.165L275.2 945.965L548.267 935.195L823.467 901.09L1096.53 942.375L1371.73 881.345L1644.8 893.91L1920 940.58V1078.79H1644.8H1371.73H1096.53H823.467H548.267H275.2H0V874.165Z" fill="#4A47DE"/>
<path d="M0 962.12L275.2 985.455L548.267 956.735L823.467 985.455L1096.53 969.3L1371.73 992.635L1644.8 1028.53L1920 949.555V1078.79H1644.8H1371.73H1096.53H823.467H548.267H275.2H0V962.12Z" fill="#5857F3"/>
</g>
<defs>
<clipPath id="clip0_3_272">
<rect width="1920" height="1077" fill="white"/>
</clipPath>
</defs>
</svg>
