<svg id="visual" viewBox="0 0 1350 100" width="1350" height="100" xmlns="http://www.w3.org/2000/svg" xmlns:xlink="http://www.w3.org/1999/xlink" version="1.1"><rect x="0" y="0" width="1350" height="100" fill="#4d49e1"></rect><path d="M0 40L32.2 39C64.3 38 128.7 36 193 43.2C257.3 50.3 321.7 66.7 386 64.5C450.3 62.3 514.7 41.7 578.8 40.5C643 39.3 707 57.7 771.2 58.3C835.3 59 899.7 42 964 41.5C1028.3 41 1092.7 57 1157 68.5C1221.3 80 1285.7 87 1317.8 90.5L1350 94L1350 101L1317.8 101C1285.7 101 1221.3 101 1157 101C1092.7 101 1028.3 101 964 101C899.7 101 835.3 101 771.2 101C707 101 643 101 578.8 101C514.7 101 450.3 101 386 101C321.7 101 257.3 101 193 101C128.7 101 64.3 101 32.2 101L0 101Z" fill="#413ccf" stroke-linecap="round" stroke-linejoin="miter"></path></svg>