<svg id="visual" viewBox="0 0 1350 100" width="1350" height="100" xmlns="http://www.w3.org/2000/svg" xmlns:xlink="http://www.w3.org/1999/xlink" version="1.1"><rect x="0" y="0" width="1350" height="100" fill="#352ebe"></rect><path d="M0 35L32.2 37.7C64.3 40.3 128.7 45.7 193 49.3C257.3 53 321.7 55 386 51.8C450.3 48.7 514.7 40.3 578.8 41.2C643 42 707 52 771.2 63C835.3 74 899.7 86 964 88.5C1028.3 91 1092.7 84 1157 73C1221.3 62 1285.7 47 1317.8 39.5L1350 32L1350 101L1317.8 101C1285.7 101 1221.3 101 1157 101C1092.7 101 1028.3 101 964 101C899.7 101 835.3 101 771.2 101C707 101 643 101 578.8 101C514.7 101 450.3 101 386 101C321.7 101 257.3 101 193 101C128.7 101 64.3 101 32.2 101L0 101Z" fill="#2820ad" stroke-linecap="round" stroke-linejoin="miter"></path></svg>