<svg id="visual" viewBox="0 0 1350 100" width="1350" height="100" xmlns="http://www.w3.org/2000/svg" xmlns:xlink="http://www.w3.org/1999/xlink" version="1.1"><rect x="0" y="0" width="1350" height="100" fill="#5857F3"></rect><path d="M0 55L32.2 61C64.3 67 128.7 79 193 85.3C257.3 91.7 321.7 92.3 386 91C450.3 89.7 514.7 86.3 578.8 75.7C643 65 707 47 771.2 41.7C835.3 36.3 899.7 43.7 964 54C1028.3 64.3 1092.7 77.7 1157 84.5C1221.3 91.3 1285.7 91.7 1317.8 91.8L1350 92L1350 101L1317.8 101C1285.7 101 1221.3 101 1157 101C1092.7 101 1028.3 101 964 101C899.7 101 835.3 101 771.2 101C707 101 643 101 578.8 101C514.7 101 450.3 101 386 101C321.7 101 257.3 101 193 101C128.7 101 64.3 101 32.2 101L0 101Z" fill="#4d49e1" stroke-linecap="round" stroke-linejoin="miter"></path></svg>