<svg id="visual" viewBox="0 0 1350 100" width="1350" height="100" xmlns="http://www.w3.org/2000/svg" xmlns:xlink="http://www.w3.org/1999/xlink" version="1.1"><rect x="0" y="0" width="1350" height="100" fill="#2820ad"></rect><path d="M0 58L32.2 56.5C64.3 55 128.7 52 193 46.5C257.3 41 321.7 33 386 33.5C450.3 34 514.7 43 578.8 44.7C643 46.3 707 40.7 771.2 40.2C835.3 39.7 899.7 44.3 964 45.8C1028.3 47.3 1092.7 45.7 1157 53C1221.3 60.3 1285.7 76.7 1317.8 84.8L1350 93L1350 101L1317.8 101C1285.7 101 1221.3 101 1157 101C1092.7 101 1028.3 101 964 101C899.7 101 835.3 101 771.2 101C707 101 643 101 578.8 101C514.7 101 450.3 101 386 101C321.7 101 257.3 101 193 101C128.7 101 64.3 101 32.2 101L0 101Z" fill="#18119c" stroke-linecap="round" stroke-linejoin="miter"></path></svg>