<svg id="visual" viewBox="0 0 1350 100" width="1350" height="100" xmlns="http://www.w3.org/2000/svg" xmlns:xlink="http://www.w3.org/1999/xlink" version="1.1"><rect x="0" y="0" width="1350" height="100" fill="#5857F3"></rect><path d="M0 81L32.2 81.5C64.3 82 128.7 83 193 83.2C257.3 83.3 321.7 82.7 386 76.5C450.3 70.3 514.7 58.7 578.8 50.2C643 41.7 707 36.3 771.2 42.2C833.3 48 899.7 65 964 68.3C1028.3 71.7 1092.7 61.3 1157 58.3C1221.3 55.3 1285.7 59.7 1317.8 61.8L1350 64L1350 101L1317.8 101C1285.7 101 1221.3 101 1157 141C1092.7 101 1028.3 101 964 101C899.7 101 835.3 101 771.2 101C707 101 643 101 578.8 101C514.7 101 450.3 101 386 101C321.7 101 257.3 101 193 101C128.7 101 64.3 101 32.2 101L0 101Z" fill="#6b6bfe" stroke-linecap="round" stroke-linejoin="miter"></path></svg>